# xmcd
#
# Track frame offsets: 
#        150
#        20527
#        41052
#        49605
#        74047
#        106747
#        127407
#        144647
#        170742
#        186637
#        202832
#        223672
#
# Disc length: 3299 seconds
#
# Revision: 80
# Processed by: cddbd v1.5.2PL0 Copyright (c) Steve Scherf et al.
# Submitted via: ExactAudioCopy v1.0b2
#
DISCID=c20ce10c
DTITLE=Nine Inch Nails - halo fourteen - The Fragile (Left)
DYEAR=1999
DGENRE=Industrial
TTITLE0=Somewhat Damaged
TTITLE1=The Day The World Went Away
TTITLE2=The Frail
TTITLE3=The Wretched
TTITLE4=We're In This Together
TTITLE5=The Fragile
TTITLE6=Just Like You Imagined
TTITLE7=Even Deeper
TTITLE8=Pilgrimage
TTITLE9=No, You Don't
TTITLE10=La Mer
TTITLE11=The Great Below
EXTD=NINE INCH NAILS: THE FRAGILE                                  HAL
EXTD=O FOURTEEN\nwritten and performed by trentreznor except as noted\n
EXTD=produced by trent reznor and alan moulder\nmanaged by johna malmj
EXTD=r for conservative\nengineeredand mixed by alan moulder\nbobezrin
EXTD=provided final continuityand flow\nprogrammed by keith hillebran
EXTD=dt,charlie clouser and trent reznor with \npaul decarli, steve du
EXTD=da andclinton bradley\nsecond engineering by brian pollack\naddit
EXTD=ional engineering by leo herrera and dave 'rave' ogilvie\nsupplem
EXTD=ental drum recordingby steve albini at electrical radio\naddition
EXTD=alsound design by keith hillebrandt, charlie clouser and steve\nd
EXTD=uda\nmastered at precision mastering by tom baker\nrecorded andmi
EXTD=xed at nothing studios, new orleans\nart direction +design by dav
EXTD=id carson\nphotography by david carson\nartist relations by jeff 
EXTD=anderson\npublicity by susan swan for nothing\nlegal necessities 
EXTD=by ross rosen\nbooking by alex kochan for artist &audience andemm
EXTD=a banks for helter \nskelter\nmerchandising by david 'khan'johnso
EXTD=n for object\nweb integrationby rob she ID3G:   0
EXTT0=r
EXTT1=martha wood\nadditional vocals on 'quiet': kim prevost
EXTT2=
EXTT3=
EXTT4=chorus drums: jerome dillon
EXTT5=
EXTT6=piano: mike garson\nadditional guitars: danny lohner and adrianb
EXTT6=elew
EXTT7=er
EXTT8=oir\ntrumpet: cherry holly
EXTT9=
EXTT10=vocals: denise milfort\ndrums: bill rieflin\ncello: willie
EXTT11=pheres: charlie clouser
PLAYORDER=
